<?xml version="1.0" standalone="no"?>
<!DOCTYPE svg PUBLIC "-//W3C//DTD SVG 20010904//EN"
 "http://www.w3.org/TR/2001/REC-SVG-20010904/DTD/svg10.dtd">
<svg version="1.0" xmlns="http://www.w3.org/2000/svg"
 width="2659.000000pt" height="607.000000pt" viewBox="0 0 2659.000000 607.000000"
 preserveAspectRatio="xMidYMid meet">

<g transform="translate(0.000000,607.000000) scale(0.100000,-0.100000)"
fill="#000000" stroke="none">
<path d="M5385 6041 c-22 -10 -66 -47 -97 -82 -62 -69 -261 -297 -343 -394
-27 -32 -59 -68 -70 -79 -11 -11 -29 -32 -40 -47 -11 -15 -69 -82 -129 -150
-59 -68 -128 -146 -151 -174 -24 -27 -81 -94 -126 -147 -140 -162 -159 -186
-186 -236 -22 -40 -89 -121 -197 -242 -13 -14 -47 -54 -77 -90 -29 -36 -89
-106 -134 -156 -44 -50 -99 -113 -122 -140 -23 -27 -96 -112 -163 -189 -67
-77 -139 -160 -161 -185 -101 -118 -217 -251 -269 -310 -32 -36 -70 -81 -86
-100 -16 -19 -76 -89 -134 -155 -58 -66 -127 -147 -155 -179 -95 -113 -208
-241 -215 -244 -4 -1 -23 30 -43 70 -20 40 -81 159 -135 263 -54 105 -145 280
-202 390 -57 110 -108 208 -114 218 -31 52 -156 75 -215 39 -44 -27 -58 -48
-171 -267 -56 -110 -128 -249 -160 -310 -31 -60 -115 -222 -185 -360 -70 -137
-149 -290 -175 -340 -26 -49 -87 -166 -135 -260 -48 -93 -109 -210 -135 -260
-26 -49 -103 -198 -170 -330 -68 -132 -142 -276 -165 -320 -81 -153 -153 -291
-227 -435 -41 -80 -121 -233 -177 -341 l-101 -197 0 -107 0 -107 34 -34 34
-34 153 -1 c783 -4 2551 -4 2613 1 72 5 80 8 107 38 29 32 29 33 29 160 0 140
-6 159 -62 188 -27 14 -158 16 -1219 16 -654 0 -1189 3 -1189 6 0 4 13 32 28
62 166 326 321 628 352 685 21 39 76 144 123 235 46 91 143 278 215 415 71
138 164 318 207 400 42 83 110 213 150 290 40 77 105 203 145 280 40 77 90
175 111 217 22 42 43 79 49 83 5 3 28 -32 51 -77 23 -46 81 -157 129 -248 48
-91 139 -266 202 -390 179 -350 268 -520 304 -581 68 -114 162 -113 278 3 91
91 88 113 -50 382 -64 126 -84 173 -77 187 4 10 73 94 153 186 248 285 432
498 515 594 44 51 118 137 165 190 47 53 104 119 126 145 65 77 266 308 299
345 17 18 41 47 55 65 27 34 220 256 273 313 18 19 41 46 52 61 11 15 37 45
57 68 l37 41 73 -50 c40 -27 116 -78 168 -113 52 -35 145 -99 205 -141 160
-111 216 -146 248 -157 46 -17 112 8 161 59 l41 43 115 -61 c63 -33 129 -62
145 -65 34 -6 66 9 230 111 127 78 250 153 350 214 39 24 82 51 97 62 15 10
32 19 37 19 5 0 35 -33 65 -72 70 -92 141 -183 335 -434 85 -109 188 -242 228
-294 40 -52 105 -135 143 -185 39 -49 101 -130 139 -180 141 -183 303 -392
356 -460 30 -38 92 -118 138 -176 45 -59 134 -173 197 -254 63 -81 130 -167
148 -192 44 -59 86 -83 145 -83 42 0 53 5 93 42 61 56 104 132 104 183 0 46
-20 83 -106 192 -73 93 -182 235 -338 438 -64 83 -141 182 -171 220 -30 39
-92 118 -137 177 -46 58 -135 173 -198 254 -63 81 -153 198 -199 258 -47 61
-119 154 -160 207 -42 54 -116 150 -166 214 -49 65 -110 144 -135 176 -25 32
-67 88 -95 125 -27 36 -64 83 -81 103 -18 20 -46 61 -64 91 -18 30 -54 82 -80
115 -26 33 -68 87 -94 120 -25 33 -77 101 -115 150 -240 310 -307 397 -354
459 -28 37 -88 114 -132 170 -45 55 -104 135 -133 177 -81 117 -157 197 -200
209 -46 12 -40 13 -87 -9z m122 -143 c28 -29 73 -85 100 -123 26 -39 102 -139
168 -224 66 -84 154 -197 195 -250 41 -54 95 -125 121 -157 25 -33 83 -108
129 -169 46 -60 97 -126 112 -145 149 -185 160 -205 134 -245 -9 -13 -59 -50
-113 -82 -211 -128 -260 -158 -323 -199 -165 -107 -372 -224 -397 -224 -12 0
-80 29 -150 65 -70 36 -132 65 -138 65 -5 0 -36 -25 -68 -55 -74 -70 -91 -71
-188 -3 -73 50 -128 88 -318 219 -53 36 -128 88 -167 115 -39 27 -112 77 -161
111 -93 64 -111 89 -91 127 17 33 65 94 148 186 67 75 213 244 281 324 13 16
89 104 169 195 80 92 212 244 294 339 82 94 154 173 160 176 32 13 55 2 103
-46z"/>
<path d="M10270 3368 c-94 -45 -187 -143 -238 -249 -56 -116 -72 -184 -79
-324 -6 -141 5 -207 50 -297 138 -279 551 -344 772 -123 126 126 166 321 111
537 -59 232 -204 405 -397 473 l-39 14 -9 -37 c-6 -20 -15 -58 -22 -84 -6 -27
-15 -48 -18 -48 -4 0 -18 36 -30 80 -13 44 -27 82 -30 84 -4 3 -35 -9 -71 -26z
m185 -177 c232 -105 347 -487 199 -659 -50 -59 -104 -84 -190 -90 -105 -7
-172 16 -239 81 -64 63 -85 122 -85 241 0 148 46 280 127 367 37 40 99 85 121
89 1 0 32 -13 67 -29z"/>
<path d="M15330 3368 c-94 -45 -187 -143 -238 -249 -56 -116 -72 -184 -79
-324 -6 -141 5 -207 50 -297 138 -279 551 -344 772 -123 126 126 166 321 111
537 -59 232 -204 405 -397 473 l-39 14 -9 -37 c-6 -20 -15 -58 -22 -84 -6 -27
-15 -48 -18 -48 -4 0 -18 36 -30 80 -13 44 -27 82 -30 84 -4 3 -35 -9 -71 -26z
m185 -177 c232 -105 347 -487 199 -659 -50 -59 -104 -84 -190 -90 -105 -7
-172 16 -239 81 -64 63 -85 122 -85 241 0 148 46 280 127 367 37 40 99 85 121
89 1 0 32 -13 67 -29z"/>
<path d="M19158 3356 l-86 -41 30 -60 31 -60 -18 -65 c-10 -36 -40 -148 -66
-250 l-47 -185 -47 -7 c-26 -4 -49 -9 -51 -11 -3 -3 -2 -46 2 -96 7 -87 8 -91
30 -91 29 0 28 10 5 -125 -10 -60 -18 -111 -16 -113 4 -4 179 -30 183 -27 1 1
13 64 26 139 14 76 26 140 29 142 5 5 211 24 262 24 29 0 33 -6 110 -159 l79
-159 83 41 c46 23 83 45 83 49 0 5 -25 58 -55 118 -30 60 -55 112 -55 115 0 3
9 5 20 5 20 0 21 5 18 97 l-3 97 -68 -3 -68 -2 -115 237 c-85 176 -114 245
-109 262 4 18 1 25 -16 29 -14 4 -31 28 -52 73 l-32 67 -87 -41z m155 -533
c47 -97 47 -98 25 -105 -13 -3 -48 -6 -79 -7 l-56 -1 25 105 c15 58 29 105 32
105 4 0 28 -44 53 -97z"/>
<path d="M18690 3349 c-183 -27 -421 -42 -611 -38 l-177 4 -5 -95 c-2 -52 -3
-97 0 -100 2 -3 93 -5 202 -5 l198 0 6 -280 c5 -226 23 -582 31 -592 3 -4 178
16 183 21 3 3 0 74 -6 158 -7 84 -15 277 -18 430 l-6 276 44 6 c138 17 286 38
300 42 15 4 15 12 0 93 -9 49 -18 91 -21 93 -3 2 -57 -4 -120 -13z"/>
<path d="M16802 3340 c-45 -10 -85 -20 -88 -23 -4 -3 -1 -34 5 -69 19 -98 25
-341 12 -440 -47 -355 -167 -454 -351 -290 -121 107 -180 342 -165 663 l7 146
-54 6 c-29 4 -72 7 -95 7 l-41 0 -7 -117 c-12 -188 11 -451 50 -569 37 -110
85 -193 149 -256 182 -181 383 -206 524 -67 56 56 86 109 121 216 39 117 61
271 61 431 0 127 -24 361 -38 373 -4 3 -44 -2 -90 -11z"/>
<path d="M16980 3213 c1 -189 16 -579 31 -801 l12 -173 41 5 c23 3 72 8 110
12 l68 6 -6 56 c-7 68 -23 337 -30 512 l-6 125 83 -87 c45 -48 136 -144 202
-213 l119 -127 10 -144 9 -145 41 5 c23 3 72 8 109 12 l69 6 -6 66 c-17 177
-27 396 -33 692 -4 219 -10 327 -17 332 -6 4 -56 8 -110 8 l-99 0 6 -247 5
-248 -95 100 c-208 218 -293 321 -293 353 0 38 -11 42 -126 42 l-94 0 0 -147z"/>
<path d="M20250 3178 c0 -246 32 -921 44 -935 2 -2 209 17 212 20 2 1 -3 85
-11 187 -7 102 -16 257 -20 345 l-6 160 34 -35 c18 -19 109 -115 201 -212
l167 -177 11 -146 11 -146 41 5 c23 3 72 8 109 11 l68 7 -6 56 c-16 165 -26
382 -32 687 -4 231 -9 342 -17 347 -6 4 -55 8 -110 8 l-98 0 4 -245 c2 -135 3
-245 2 -245 -5 0 -169 175 -268 285 -95 107 -116 136 -116 161 0 41 -10 44
-126 44 l-94 0 0 -182z"/>
<path d="M11354 3335 c-178 -39 -314 -171 -370 -360 -23 -79 -23 -235 0 -337
72 -320 263 -476 526 -428 54 9 200 65 200 76 0 3 -89 156 -93 161 -1 1 -33
-9 -72 -23 -181 -61 -293 -3 -355 184 -63 191 -36 370 70 465 63 57 127 77
241 77 102 0 95 -8 102 117 l4 71 -30 6 c-48 10 -157 5 -223 -9z"/>
<path d="M19852 3244 c-16 -107 -17 -102 21 -109 l34 -7 6 -281 c4 -155 10
-308 13 -339 6 -53 5 -58 -13 -58 -17 0 -21 -11 -32 -96 -7 -53 -10 -99 -6
-102 8 -8 312 -9 319 -1 3 3 -1 45 -9 94 -8 50 -15 93 -15 98 0 4 -11 7 -24 7
-22 0 -24 5 -30 73 -3 39 -9 191 -13 335 -7 284 -7 282 45 282 17 0 22 4 18
18 -2 9 -10 51 -16 92 l-12 75 -137 0 -138 0 -11 -81z"/>
<path d="M12320 3248 c-92 -63 -187 -138 -270 -212 -47 -42 -88 -76 -92 -76
-5 0 -8 68 -8 150 l0 150 -95 0 -95 0 0 -164 c0 -255 28 -807 42 -821 2 -3 45
-2 94 3 l89 7 -3 50 c-1 28 -7 111 -11 185 -5 74 -7 137 -5 139 15 16 145
-109 323 -309 47 -52 89 -97 93 -98 4 -2 39 23 78 57 l70 60 -124 138 c-124
139 -240 255 -286 286 l-24 17 49 51 c63 63 159 143 252 206 l71 49 -51 81
-52 81 -45 -30z"/>
<path d="M12750 3257 c-19 -11 -52 -31 -72 -44 l-38 -23 47 -76 c25 -42 83
-128 129 -191 l84 -115 -98 -141 c-55 -79 -126 -180 -159 -227 l-61 -84 76
-57 76 -57 57 76 c200 274 583 863 568 876 -14 11 -149 86 -156 86 -4 0 -48
-65 -98 -145 -49 -80 -92 -145 -95 -145 -8 0 -104 134 -160 223 -23 37 -47 67
-53 66 -7 0 -28 -10 -47 -22z"/>
<path d="M9360 3250 c0 -19 -7 -20 -102 -20 l-101 0 7 -286 c6 -279 20 -556
31 -661 l6 -52 52 5 c29 3 71 7 94 10 l42 5 -6 95 c-3 52 -3 94 1 94 3 0 41
-28 84 -62 87 -69 310 -218 327 -218 11 0 95 139 95 156 0 5 -39 33 -86 63
-72 45 -230 156 -257 181 -5 4 16 21 45 38 83 47 134 97 167 164 77 154 3 346
-166 432 -40 20 -208 76 -229 76 -2 0 -4 -9 -4 -20z m83 -195 c38 -12 75 -33
104 -59 38 -35 46 -48 50 -87 5 -43 2 -50 -31 -86 -33 -37 -116 -83 -177 -98
l-26 -6 -7 171 c-7 170 -4 195 18 187 6 -2 37 -12 69 -22z"/>
<path d="M14040 3033 c1 -262 25 -759 39 -781 4 -7 37 -7 95 -1 49 5 90 10 91
12 1 1 -4 79 -11 172 -17 245 -24 425 -16 425 4 0 43 -36 87 -80 76 -76 78
-80 62 -98 -17 -19 -15 -21 52 -76 39 -31 74 -56 80 -56 5 0 53 59 107 130 54
72 101 130 104 130 4 0 10 -78 14 -173 6 -164 22 -387 28 -392 5 -4 179 13
184 18 2 2 0 58 -6 123 -12 145 -30 577 -30 732 l0 112 -95 0 -95 0 0 -39 c0
-33 -15 -60 -101 -182 -56 -79 -103 -146 -106 -149 -3 -3 -70 62 -149 143
-136 140 -144 150 -144 187 l0 40 -95 0 -95 0 0 -197z"/>
<path d="M3845 1804 c-256 -40 -485 -242 -559 -494 -67 -226 3 -489 174 -660
84 -84 154 -129 262 -168 67 -25 86 -27 218 -27 138 1 149 2 228 32 174 67
300 180 377 338 56 117 70 177 69 305 -1 202 -70 359 -216 496 -121 113 -263
172 -426 179 -53 2 -110 1 -127 -1z m240 -129 c188 -50 354 -221 400 -416 30
-131 15 -261 -47 -389 -40 -83 -158 -203 -244 -248 -154 -80 -330 -83 -489 -7
-141 68 -252 194 -297 338 -30 94 -32 255 -4 337 52 155 157 281 288 344 41
19 92 40 114 45 63 15 214 12 279 -4z"/>
<path d="M4690 1758 c73 -209 325 -931 383 -1100 l72 -208 75 0 75 0 233 668
c127 367 232 673 232 680 0 8 -19 12 -59 12 l-59 0 -30 -87 c-36 -107 -334
-962 -366 -1052 -13 -35 -26 -59 -30 -53 -3 5 -87 243 -186 529 -99 285 -192
551 -207 591 l-26 72 -63 0 -63 0 19 -52z"/>
<path d="M5940 1130 l0 -680 530 0 530 0 0 55 0 55 -470 0 -470 0 0 140 0 140
468 2 467 3 0 55 0 55 -467 3 -468 2 0 365 0 365 468 2 467 3 0 55 0 55 -527
3 -528 2 0 -680z"/>
<path d="M7170 1130 l0 -680 60 0 60 0 0 194 0 194 208 5 c114 3 215 7 226 8
16 3 33 -29 106 -196 l88 -200 67 -3 c52 -2 66 0 62 10 -3 7 -46 104 -96 215
-50 111 -91 208 -91 215 1 7 26 30 56 51 187 130 247 394 138 609 -38 75 -135
168 -214 205 -99 47 -148 53 -420 53 l-250 0 0 -680z m612 528 c71 -33 138
-101 175 -176 24 -50 27 -69 28 -152 0 -82 -4 -103 -27 -152 -37 -79 -98 -142
-177 -181 l-65 -32 -213 -3 -213 -4 0 367 0 366 218 -3 c211 -3 218 -4 274
-30z"/>
<path d="M8280 1130 l0 -680 500 0 500 0 0 55 0 55 -440 0 -440 0 0 625 0 625
-60 0 -60 0 0 -680z"/>
<path d="M9921 1788 c-5 -13 -50 -142 -101 -288 -51 -146 -141 -407 -202 -580
-60 -173 -121 -346 -134 -384 -13 -38 -24 -73 -24 -78 0 -5 28 -8 61 -6 l62 3
65 193 65 192 288 0 287 0 18 -52 c9 -29 39 -117 66 -196 l50 -142 59 0 c32 0
59 4 59 9 0 12 -421 1228 -459 1324 -10 26 -13 27 -81 27 -64 0 -71 -2 -79
-22z m110 -215 c12 -38 64 -189 115 -336 52 -148 94 -271 94 -273 0 -2 -108
-4 -241 -4 -189 0 -240 3 -237 13 3 6 56 159 118 340 63 180 117 327 121 327
4 0 17 -30 30 -67z"/>
<path d="M10720 1130 l0 -680 60 0 60 0 2 566 3 566 140 -178 c77 -99 276
-353 443 -566 l304 -388 49 0 49 0 -2 678 -3 677 -57 3 -58 3 0 -561 c0 -334
-4 -560 -9 -558 -10 3 -46 49 -476 598 -169 217 -330 423 -357 458 -49 61 -51
62 -99 62 l-49 0 0 -680z"/>
<path d="M12000 1131 l0 -681 243 0 c278 0 324 8 457 72 68 32 101 57 166 122
136 136 192 264 201 456 5 98 2 127 -16 195 -65 234 -219 399 -454 483 -69 25
-83 26 -334 30 l-263 4 0 -681z m539 544 c181 -48 324 -184 386 -368 29 -87
35 -225 15 -312 -36 -151 -150 -297 -286 -368 -106 -55 -172 -67 -366 -67
l-168 0 0 565 0 565 183 0 c126 0 199 -5 236 -15z"/>
<path d="M13580 1130 l0 -680 530 0 530 0 0 55 0 55 -470 0 -470 0 0 140 0
140 468 2 467 3 3 58 3 57 -471 0 -470 0 0 365 0 365 468 2 467 3 3 58 3 57
-531 0 -530 0 0 -680z"/>
<path d="M14810 1130 l0 -680 500 0 500 0 0 55 0 55 -440 0 -440 0 -2 623 -3
622 -57 3 -58 3 0 -681z"/>
<path d="M15980 1130 l0 -680 525 0 525 0 0 55 0 55 -465 0 -465 0 0 140 0
140 465 0 465 0 0 60 0 60 -465 0 -465 0 0 365 0 365 465 0 465 0 0 60 0 60
-525 0 -525 0 0 -680z"/>
<path d="M17745 1794 c-38 -8 -112 -36 -164 -61 -156 -75 -278 -213 -338 -385
-35 -96 -44 -280 -19 -378 28 -114 101 -245 181 -325 80 -80 211 -153 325
-181 89 -22 281 -15 363 14 90 33 187 88 246 140 l55 48 -34 42 c-38 48 -49
51 -76 21 -38 -43 -157 -118 -222 -141 -56 -19 -87 -23 -182 -22 -99 0 -124 4
-183 27 -195 76 -327 234 -363 437 -50 284 125 562 405 644 33 10 92 16 149
16 144 0 260 -44 371 -142 l45 -39 40 41 41 41 -55 50 c-31 29 -94 70 -145 94
-145 71 -289 90 -440 59z"/>
<path d="M18532 1753 l3 -58 208 -3 207 -2 0 -620 0 -620 60 0 60 0 0 620 0
620 203 2 202 3 3 58 3 57 -476 0 -476 0 3 -57z"/>
<path d="M19650 1130 l0 -680 60 0 60 0 0 194 0 194 208 5 c114 3 215 7 226 8
15 3 33 -30 107 -196 l88 -200 67 -3 c51 -2 65 0 61 10 -3 7 -46 105 -96 217
-50 112 -91 208 -91 215 1 6 24 27 53 46 29 20 73 63 99 97 148 197 125 472
-54 638 -127 118 -195 135 -535 135 l-253 0 0 -680z m618 527 c72 -38 132
-100 168 -173 26 -53 29 -69 29 -154 0 -82 -4 -103 -27 -152 -37 -79 -98 -142
-177 -181 l-65 -32 -213 -3 -213 -4 0 367 0 366 223 -3 c221 -3 222 -3 275
-31z"/>
<path d="M20760 1130 l0 -680 60 0 60 0 0 680 0 680 -60 0 -60 0 0 -680z"/>
<path d="M21599 1795 c-266 -53 -480 -271 -535 -545 -57 -288 94 -595 357
-724 120 -59 190 -76 310 -76 116 0 222 25 317 75 66 34 192 129 192 143 0 5
-18 25 -39 46 l-39 38 -62 -51 c-232 -193 -535 -187 -750 15 -263 249 -226
688 74 883 211 138 493 119 675 -45 l53 -48 40 43 c39 42 40 43 21 63 -10 11
-46 40 -80 64 -159 114 -347 156 -534 119z"/>
<path d="M22420 1130 l0 -680 55 0 55 0 0 680 0 680 -55 0 -55 0 0 -680z"/>
<path d="M23162 1753 c-40 -116 -263 -756 -356 -1023 -53 -151 -96 -276 -96
-277 0 -2 28 -3 63 -3 l62 0 65 193 65 192 289 0 289 0 66 -192 66 -193 64 0
c47 0 62 3 58 13 -2 7 -41 116 -85 242 -171 492 -315 904 -349 1003 l-35 102
-73 0 -73 0 -20 -57z m212 -441 c64 -183 116 -337 116 -343 0 -5 -96 -9 -240
-9 l-239 0 55 158 c132 378 187 532 190 529 2 -1 55 -152 118 -335z"/>
<path d="M23970 1130 l0 -680 60 0 60 0 0 567 0 568 24 -25 c20 -22 143 -178
771 -982 l100 -128 47 0 48 0 0 680 0 680 -60 0 -60 0 -2 -565 -3 -564 -360
460 c-198 253 -396 507 -440 564 l-80 104 -52 1 -53 0 0 -680z"/>
<path d="M25605 1797 c-167 -56 -254 -201 -211 -350 33 -114 101 -174 318
-284 233 -118 302 -197 303 -343 0 -58 -5 -84 -23 -117 -62 -117 -248 -173
-412 -124 -58 18 -81 32 -125 74 -66 64 -90 132 -79 225 l6 59 -57 8 c-31 3
-59 4 -62 1 -14 -14 -7 -183 10 -231 36 -104 124 -190 245 -236 81 -31 240
-38 328 -14 251 68 359 307 244 542 -44 89 -121 155 -282 239 -256 133 -303
176 -303 274 0 47 5 63 29 94 75 99 239 102 320 6 14 -17 30 -38 34 -47 8 -14
16 -12 56 16 25 18 46 35 46 38 0 16 -55 84 -86 108 -82 63 -214 90 -299 62z"/>
</g>
</svg>
